<?xml version="1.0" encoding="iso-8859-1"?>
<!-- Uploaded to: SVG Repo, www.svgrepo.com, Generator: SVG Repo Mixer Tools -->
<svg version="1.1" id="Layer_1" xmlns="http://www.w3.org/2000/svg" xmlns:xlink="http://www.w3.org/1999/xlink" 
	 viewBox="0 0 512 512" xml:space="preserve">
<path style="fill:#FCD577;" d="M465.345,469.139V42.861c-18.862,0-34.153-15.29-34.153-34.153H80.808
	c0,18.862-15.29,34.153-34.153,34.153v426.279c18.862,0,34.153,15.29,34.153,34.153h350.383
	C431.192,484.431,446.483,469.139,465.345,469.139z"/>
<rect x="103.573" y="65.631" style="fill:#99B6C6;" width="304.843" height="380.738"/>
<rect x="103.573" y="65.631" style="fill:#7BD4EF;" width="304.843" height="126.851"/>
<g>
	<path style="fill:#7190A5;" d="M204.893,164.641c0,22.361,11.076,41.169,26.076,46.533l8.197,30.116
		c0,0-42.423,10.495-49.017,26.227l-8.348-2.647c14.28-22.593,19.865-75.175,21.943-105.244l1.324,0.104
		C204.951,161.344,204.893,162.981,204.893,164.641z"/>
	<path style="fill:#7190A5;" d="M341.705,275.04l-0.94,1.196c-12.016-2.74-26.784-0.093-42.376,6.792c0,0,0,0-0.012,0
		c-35.178-24.067-23.824-118.387-23.824-118.387c0-26.552-15.604-48.065-34.83-48.065c-18.03,0-32.868,18.913-34.656,43.154
		l-1.324-0.104c0.917-13.27,1.149-22.152,1.149-22.152c0-26.552,22.396-48.065,50.027-48.065c27.632,0,50.039,21.513,50.039,48.065
		C304.959,137.474,301.105,243.67,341.705,275.04z"/>
</g>
<g>
	<path style="fill:#577484;" d="M198.008,391.07c23.766,10.983,50.318,24.602,60.616,34.9c-21.235,5.48-41.796,12.341-54.288,20.399
		h-33.332c-16.939-9.369-31.08-22.744-38.65-41.761C102.168,328.76,177.25,270.71,177.25,270.71c1.614-1.614,3.123-3.576,4.551-5.84
		l8.348,2.647c-2.194,5.201-0.464,10.971,7.999,17.125c19.54,14.211,47.763,17.473,68.255,17.659
		c-27.121,20.677-52.86,51.525-67.489,86.831L198.008,391.07z"/>
	<path style="fill:#577484;" d="M258.624,425.97c-10.298-10.298-36.85-23.917-60.616-34.9l0.906-1.939
		c14.629-35.306,40.368-66.154,67.489-86.831c0.012,0,0.012,0,0.012,0c10.635-8.115,21.49-14.652,31.962-19.273
		c0.012,0,0.012,0,0.012,0c15.592-6.885,30.36-9.532,42.376-6.792c9.427,2.136,17.148,7.605,22.245,16.916
		c27.086,49.54,9.288,153.217,9.288,153.217H204.336C216.828,438.311,237.389,431.45,258.624,425.97z"/>
</g>
<path style="fill:#F7DEB0;" d="M230.969,211.174c-15-5.364-26.076-24.172-26.076-46.533c0-1.66,0.058-3.297,0.174-4.911
	c1.788-24.242,16.626-43.154,34.656-43.154c19.226,0,34.83,21.513,34.83,48.065c0,0-11.355,94.319,23.824,118.387
	c-10.472,4.621-21.328,11.157-31.962,19.273c0,0,0,0-0.012,0c-20.492-0.186-48.715-3.448-68.255-17.659
	c-8.464-6.153-10.194-11.923-7.999-17.125c6.594-15.732,49.017-26.227,49.017-26.227L230.969,211.174z"/>
<g>
	<polyline style="fill:#BA6B24;" points="431.192,8.707 408.423,65.629 465.345,42.861 	"/>
	<polyline style="fill:#BA6B24;" points="431.192,503.293 408.423,446.371 465.345,469.139 	"/>
	<polyline style="fill:#BA6B24;" points="80.808,503.293 103.577,446.371 46.655,469.139 	"/>
	<polyline style="fill:#BA6B24;" points="46.655,42.861 103.577,65.629 80.808,8.707 	"/>
</g>
<path d="M465.345,123.408c4.809,0,8.707-3.899,8.707-8.707v-71.84c0-4.809-3.899-8.707-8.707-8.707
	c-14.031,0-25.446-11.415-25.446-25.446c0-4.809-3.899-8.707-8.707-8.707H80.808C75.999,0,72.1,3.899,72.1,8.707
	c0,14.031-11.415,25.446-25.446,25.446c-4.809,0-8.707,3.899-8.707,8.707v426.279c0,4.809,3.899,8.707,8.707,8.707
	c14.031,0,25.446,11.415,25.446,25.446c0,4.809,3.899,8.707,8.707,8.707h80.281c4.809,0,8.707-3.899,8.707-8.707
	c0-4.809-3.899-8.707-8.707-8.707H93.669l15.802-39.506h293.056l15.803,39.506H190.115c-4.809,0-8.707,3.899-8.707,8.707
	c0,4.809,3.899,8.707,8.707,8.707h241.078c4.809,0,8.707-3.899,8.707-8.707c0-14.031,11.415-25.446,25.446-25.446
	c4.809,0,8.707-3.899,8.707-8.707V143.726c0-4.809-3.899-8.707-8.707-8.707c-4.809,0-8.707,3.899-8.707,8.707v312.552
	l-39.506-15.802V192.571c0-0.03,0.005-0.059,0.005-0.089s-0.005-0.059-0.005-0.089V71.524l39.506-15.802v58.979
	C456.638,119.51,460.536,123.408,465.345,123.408z M402.528,56.921H109.472L93.669,17.415h324.661L402.528,56.921z M94.87,71.524
	v120.878c0,0.027-0.003,0.052-0.003,0.079c0,0.027,0.003,0.052,0.003,0.079v247.915l-39.506,15.802V55.722L94.87,71.524z
	 M81.428,33.703L87.947,50L71.65,43.481C75.413,40.767,78.716,37.465,81.428,33.703z M71.65,468.52L87.947,462l-6.519,16.297
	C78.716,474.535,75.413,471.232,71.65,468.52z M112.285,201.189h4.858c4.809,0,8.707-3.899,8.707-8.707s-3.899-8.707-8.707-8.707
	h-4.858V74.336h287.432v109.438h-84.113c-2.007-18.597-2.31-35.63-1.941-45.987c0.003-0.103,0.006-0.21,0.006-0.313
	c0-31.305-26.353-56.773-58.746-56.773c-32.343,0-58.664,25.398-58.735,56.645c-0.048,1.636-0.686,22.061-3.308,46.428h-46.71
	c-4.809,0-8.707,3.899-8.707,8.707s3.899,8.707,8.707,8.707h44.546c-6.127,43.15-14.51,57.979-19.305,63.039
	c-3.288,2.634-20.882,17.291-35.309,40.371c-21.151,33.838-25.244,69.534-11.834,103.228c4.478,11.25,11.238,21.217,20.167,29.835
	h-32.148V201.189z M364.796,437.664H248.769c39.715-11.5,88.397-18.142,89.08-18.233c4.766-0.64,8.111-5.022,7.471-9.79
	c-0.64-4.765-5.014-8.118-9.788-7.471c-1.181,0.158-10.12,1.377-23.084,3.596c-10.613-38.687-4.189-61.822,3.329-74.557
	c2.444-4.141,1.068-9.481-3.072-11.925c-4.141-2.443-9.48-1.068-11.925,3.072c-9.135,15.477-17.154,42.833-5.524,86.536
	c-10.634,2.051-22.451,4.56-34.274,7.505c-11.048-9.124-30.744-19.727-51.544-29.601c5.184-11.374,11.687-22.54,19.4-33.264
	c2.807-3.904,1.919-9.345-1.984-12.153c-3.904-2.807-9.345-1.918-12.153,1.984c-8.36,11.625-15.425,23.756-21.074,36.141
	c-6.756-3.033-13.427-5.929-19.754-8.616c-4.427-1.88-9.539,0.186-11.417,4.611c-1.88,4.427,0.186,9.539,4.611,11.417
	c31.947,13.564,57.025,25.902,72.263,35.438c-14.474,4.426-27.768,9.54-37.455,15.307h-28.538
	c-15.913-9.245-26.982-21.436-32.889-36.275c-11.378-28.588-7.962-57.9,10.151-87.121c12.309-19.858,27.632-33.092,31.205-36.04
	c1.577,4.223,4.896,8.853,11.227,13.457c14.82,10.779,33.815,15.79,51.286,17.925c-4.831,4.546-9.571,9.392-14.17,14.533
	c-3.206,3.584-2.899,9.089,0.685,12.295c3.584,3.204,9.089,2.9,12.295-0.685c29.717-33.225,67.626-54.46,92.186-51.627
	c9.217,1.061,15.778,5.38,20.056,13.205C376.7,336.341,368.122,413.709,364.796,437.664z M264.577,215.324
	c1.748,29.782,8.065,51.676,18.823,65.35c-6.635,3.652-13.315,7.955-19.937,12.864c-18.741-0.45-43.364-3.699-60.194-15.939
	c-3.893-2.831-5.452-5.208-5.255-6.219c1.167-5.977,21.651-16.241,43.037-21.585l7.866-1.494c4.724-0.897,7.827-5.456,6.929-10.18
	c-0.897-4.725-5.459-7.826-10.18-6.929l-0.215,0.041l-2.813-10.336c3.369-1.202,5.785-4.412,5.785-8.194
	c0-4.809-3.899-8.707-8.707-8.707c-14.16,0-26.122-18.023-26.122-39.358s11.963-39.358,26.122-39.358
	c14.053,0,25.941,17.753,26.12,38.875C265.404,168.005,263.103,190.207,264.577,215.324z M208.042,203.525
	c4.327,5.99,9.636,10.752,15.591,13.851l4.87,17.893c-4.51,1.394-10.328,3.361-16.282,5.833c-5.228,2.171-9.769,4.412-13.681,6.728
	C202.781,234.483,205.839,218.819,208.042,203.525z M299.803,272.949c-9.98-9.735-16.117-29.755-17.827-58.409
	c-1.524-25.536,1.189-48.635,1.216-48.863c0.042-0.345,0.063-0.693,0.063-1.04c0-31.305-19.53-56.773-43.537-56.773
	c-5.736,0-11.213,1.469-16.233,4.109c7.585-8.471,18.859-13.857,31.435-13.857c22.74,0,41.25,17.578,41.332,39.214
	c-0.195,5.754-2.406,87.317,26.386,129.647C315.354,267.861,307.68,269.887,299.803,272.949z M382.402,437.664
	c3.798-27.963,11.624-105.935-11.759-148.689c-5.101-9.33-12.63-15.915-22.083-19.464c-0.361-0.398-0.76-0.771-1.205-1.106
	c-16.086-12.139-24.845-39.671-29.394-67.214h81.753v236.474h-17.312V437.664z M440.35,468.52c-3.763,2.712-7.066,6.015-9.778,9.778
	L424.053,462L440.35,468.52z M430.572,33.703c2.712,3.763,6.015,7.066,9.778,9.778L424.053,50L430.572,33.703z"/>
</svg>